<svg width="125" height="40" viewBox="0 0 125 40" fill="none" xmlns="http://www.w3.org/2000/svg">
<g clip-path="url(#clip0_2_23)">
<path d="M6.76268 23.963H1.24268V23.183C1.44268 23.0763 1.64935 22.9897 1.86268 22.923C2.07601 22.843 2.30935 22.7697 2.56268 22.703V15.383L1.24268 15.223V14.443C1.44268 14.363 1.68935 14.283 1.98268 14.203C2.28935 14.123 2.60935 14.0563 2.94268 14.003C3.27601 13.9363 3.60268 13.883 3.92268 13.843C4.24268 13.7897 4.52268 13.7497 4.76268 13.723H5.44268V22.703C5.70935 22.7697 5.94935 22.843 6.16268 22.923C6.37601 22.9897 6.57601 23.0763 6.76268 23.183V23.963ZM2.22268 10.683C2.22268 10.2163 2.38268 9.84968 2.70268 9.58301C3.02268 9.31635 3.43601 9.18301 3.94268 9.18301C4.44935 9.18301 4.86268 9.31635 5.18268 9.58301C5.50268 9.84968 5.66268 10.2163 5.66268 10.683C5.66268 11.1363 5.50268 11.4963 5.18268 11.763C4.86268 12.0297 4.44935 12.163 3.94268 12.163C3.43601 12.163 3.02268 12.0297 2.70268 11.763C2.38268 11.4963 2.22268 11.1363 2.22268 10.683ZM13.4033 23.963H7.88331V23.183C8.32331 22.9697 8.76331 22.8097 9.20331 22.703V10.583L7.68331 10.423V9.64301C7.85664 9.56301 8.09664 9.48301 8.40331 9.40301C8.70997 9.32301 9.03664 9.25635 9.38331 9.20301C9.74331 9.13635 10.0966 9.08301 10.4433 9.04301C10.8033 8.98968 11.1233 8.94968 11.4033 8.92301H12.0833V22.703C12.5233 22.8097 12.9633 22.9697 13.4033 23.183V23.963ZM20.0439 23.963H14.5239V23.183C14.9639 22.9697 15.4039 22.8097 15.8439 22.703V10.583L14.3239 10.423V9.64301C14.4973 9.56301 14.7373 9.48301 15.0439 9.40301C15.3506 9.32301 15.6773 9.25635 16.0239 9.20301C16.3839 9.13635 16.7373 9.08301 17.0839 9.04301C17.4439 8.98968 17.7639 8.94968 18.0439 8.92301H18.7239V22.703C19.1639 22.8097 19.6039 22.9697 20.0439 23.183V23.963ZM21.9646 20.003C21.9646 19.163 21.9846 18.383 22.0246 17.663C22.0646 16.943 22.0846 16.183 22.0846 15.383L20.7646 15.223V14.443C20.9779 14.363 21.2379 14.283 21.5446 14.203C21.8646 14.123 22.1912 14.0563 22.5246 14.003C22.8579 13.9363 23.1779 13.883 23.4846 13.843C23.8046 13.7897 24.0712 13.7497 24.2846 13.723H24.9646C24.9646 14.723 24.9446 15.7097 24.9046 16.683C24.8646 17.643 24.8446 18.5897 24.8446 19.523C24.8446 20.6163 24.9512 21.403 25.1646 21.883C25.3912 22.363 25.8046 22.603 26.4046 22.603C26.8179 22.603 27.1979 22.4497 27.5446 22.143C27.9046 21.823 28.1979 21.3163 28.4246 20.623V15.383L27.1246 15.223V14.443C27.3246 14.363 27.5712 14.283 27.8646 14.203C28.1712 14.123 28.4846 14.0563 28.8046 14.003C29.1379 13.9363 29.4646 13.883 29.7846 13.843C30.1046 13.7897 30.3846 13.7497 30.6246 13.723H31.3046V22.543L32.6246 22.703V23.403C32.4379 23.483 32.2046 23.563 31.9246 23.643C31.6446 23.723 31.3512 23.803 31.0446 23.883C30.7379 23.9497 30.4312 24.003 30.1246 24.043C29.8312 24.0963 29.5646 24.1363 29.3246 24.163H28.6446L28.5046 21.783H28.4246C28.3579 22.063 28.2379 22.3497 28.0646 22.643C27.8912 22.923 27.6646 23.183 27.3846 23.423C27.1179 23.6497 26.7979 23.8363 26.4246 23.983C26.0512 24.1297 25.6379 24.203 25.1846 24.203C24.6779 24.203 24.2246 24.1363 23.8246 24.003C23.4379 23.883 23.1046 23.663 22.8246 23.343C22.5446 23.023 22.3312 22.5963 22.1846 22.063C22.0379 21.5163 21.9646 20.8297 21.9646 20.003ZM44.866 23.963H39.866V23.183C39.9993 23.103 40.146 23.023 40.306 22.943C40.4793 22.8497 40.666 22.7697 40.866 22.703V18.723C40.866 18.1097 40.846 17.5897 40.806 17.163C40.7793 16.7363 40.7126 16.3897 40.606 16.123C40.4993 15.843 40.3526 15.643 40.166 15.523C39.9793 15.3897 39.7393 15.323 39.446 15.323C39.0193 15.323 38.646 15.4897 38.326 15.823C38.0193 16.143 37.7926 16.5697 37.646 17.103V22.703C38.006 22.8097 38.3393 22.9697 38.646 23.183V23.963H33.446V23.183C33.6326 23.0897 33.8393 23.003 34.066 22.923C34.2926 22.843 34.526 22.7697 34.766 22.703V15.383L33.446 15.223V14.443C33.6593 14.3497 33.9193 14.263 34.226 14.183C34.546 14.103 34.8726 14.0363 35.206 13.983C35.5393 13.9163 35.8593 13.863 36.166 13.823C36.486 13.783 36.7526 13.7497 36.966 13.723H37.646V15.983H37.666C37.8793 15.3563 38.2526 14.823 38.786 14.383C39.3326 13.943 39.986 13.723 40.746 13.723C41.066 13.723 41.3793 13.7563 41.686 13.823C41.9926 13.8897 42.2726 14.0163 42.526 14.203C42.7926 14.3763 43.0193 14.623 43.206 14.943C43.3926 15.263 43.526 15.6763 43.606 16.183C43.846 15.4497 44.246 14.8563 44.806 14.403C45.366 13.9497 46.046 13.723 46.846 13.723C47.3393 13.723 47.7726 13.7897 48.146 13.923C48.5326 14.043 48.8526 14.263 49.106 14.583C49.3726 14.903 49.5726 15.3363 49.706 15.883C49.8393 16.4297 49.906 17.123 49.906 17.963V22.703C50.3593 22.783 50.7993 22.943 51.226 23.183V23.963H46.026V23.183C46.3326 22.983 46.666 22.823 47.026 22.703V18.363C47.026 17.323 46.926 16.5563 46.726 16.063C46.5393 15.5697 46.126 15.323 45.486 15.323C45.006 15.323 44.626 15.503 44.346 15.863C44.0793 16.223 43.8793 16.703 43.746 17.303V22.703C43.9726 22.7697 44.1726 22.843 44.346 22.923C44.5326 23.003 44.706 23.0897 44.866 23.183V23.963ZM57.6025 23.963H52.0825V23.183C52.2825 23.0763 52.4892 22.9897 52.7025 22.923C52.9159 22.843 53.1492 22.7697 53.4025 22.703V15.383L52.0825 15.223V14.443C52.2825 14.363 52.5292 14.283 52.8225 14.203C53.1292 14.123 53.4492 14.0563 53.7825 14.003C54.1159 13.9363 54.4425 13.883 54.7625 13.843C55.0825 13.7897 55.3625 13.7497 55.6025 13.723H56.2825V22.703C56.5492 22.7697 56.7892 22.843 57.0025 22.923C57.2159 22.9897 57.4159 23.0763 57.6025 23.183V23.963ZM53.0625 10.683C53.0625 10.2163 53.2225 9.84968 53.5425 9.58301C53.8625 9.31635 54.2759 9.18301 54.7825 9.18301C55.2892 9.18301 55.7025 9.31635 56.0225 9.58301C56.3425 9.84968 56.5025 10.2163 56.5025 10.683C56.5025 11.1363 56.3425 11.4963 56.0225 11.763C55.7025 12.0297 55.2892 12.163 54.7825 12.163C54.2759 12.163 53.8625 12.0297 53.5425 11.763C53.2225 11.4963 53.0625 11.1363 53.0625 10.683ZM70.7431 23.963H65.4431V23.183C65.6165 23.0897 65.7831 23.0097 65.9431 22.943C66.1165 22.863 66.3165 22.783 66.5431 22.703V18.003C66.5431 17.163 66.4231 16.5097 66.1831 16.043C65.9431 15.563 65.5165 15.323 64.9031 15.323C64.3965 15.323 63.9565 15.4897 63.5831 15.823C63.2231 16.143 62.9498 16.583 62.7631 17.143V22.703C62.9765 22.7563 63.1631 22.823 63.3231 22.903C63.4965 22.9697 63.6765 23.063 63.8631 23.183V23.963H58.5631V23.183C58.8965 23.0097 59.3365 22.8497 59.8831 22.703V15.383L58.5631 15.223V14.443C58.7365 14.363 58.9631 14.2897 59.2431 14.223C59.5231 14.143 59.8231 14.0697 60.1431 14.003C60.4765 13.9363 60.8098 13.883 61.1431 13.843C61.4898 13.7897 61.8031 13.7497 62.0831 13.723H62.7631V15.783H62.7831C63.0631 15.223 63.4831 14.743 64.0431 14.343C64.6031 13.9297 65.2831 13.723 66.0831 13.723C66.6031 13.723 67.0698 13.7897 67.4831 13.923C67.8965 14.043 68.2431 14.263 68.5231 14.583C68.8165 14.903 69.0365 15.3363 69.1831 15.883C69.3432 16.4163 69.4232 17.0963 69.4232 17.923V22.703C69.9565 22.7963 70.3965 22.9563 70.7431 23.183V23.963ZM80.3742 21.063C80.3742 21.3563 80.3742 21.6097 80.3742 21.823C80.3876 22.0363 80.4076 22.263 80.4342 22.503L81.8142 22.703V23.403C81.6542 23.483 81.4342 23.563 81.1542 23.643C80.8876 23.723 80.6009 23.803 80.2942 23.883C80.0009 23.9497 79.7076 24.003 79.4142 24.043C79.1209 24.0963 78.8609 24.1363 78.6342 24.163H77.9542C77.8209 23.8563 77.7409 23.5497 77.7142 23.243C77.6876 22.9363 77.6676 22.563 77.6542 22.123H77.5542C77.4876 22.3897 77.3742 22.6497 77.2142 22.903C77.0542 23.143 76.8476 23.363 76.5942 23.563C76.3542 23.7497 76.0676 23.903 75.7342 24.023C75.4009 24.143 75.0276 24.203 74.6142 24.203C74.1742 24.203 73.7676 24.1363 73.3942 24.003C73.0209 23.8697 72.6942 23.683 72.4142 23.443C72.1342 23.203 71.9142 22.9163 71.7542 22.583C71.5942 22.2363 71.5142 21.8497 71.5142 21.423C71.5142 20.823 71.6276 20.3297 71.8542 19.943C72.0809 19.5563 72.4342 19.243 72.9142 19.003C73.4076 18.7497 74.0342 18.563 74.7942 18.443C75.5676 18.323 76.5009 18.2363 77.5942 18.183C77.7009 17.0363 77.6542 16.1963 77.4542 15.663C77.2542 15.1297 76.8209 14.863 76.1542 14.863C75.7409 14.863 75.3609 14.9297 75.0142 15.063L74.0742 17.463H73.1942C73.0876 17.303 72.9809 17.123 72.8742 16.923C72.7809 16.7097 72.6876 16.4897 72.5942 16.263C72.5142 16.023 72.4409 15.783 72.3742 15.543C72.3209 15.303 72.2809 15.0697 72.2542 14.843C72.7609 14.4963 73.4142 14.223 74.2142 14.023C75.0142 13.823 75.8609 13.723 76.7542 13.723C77.5142 13.723 78.1342 13.8097 78.6142 13.983C79.0942 14.143 79.4676 14.3697 79.7342 14.663C80.0142 14.943 80.2076 15.2763 80.3142 15.663C80.4209 16.0497 80.4742 16.463 80.4742 16.903C80.4742 17.703 80.4542 18.4297 80.4142 19.083C80.3876 19.723 80.3742 20.383 80.3742 21.063ZM75.8742 22.603C76.1542 22.603 76.3942 22.5497 76.5942 22.443C76.7942 22.3363 76.9609 22.2097 77.0942 22.063C77.2409 21.9163 77.3476 21.7563 77.4142 21.583C77.4942 21.4097 77.5542 21.2563 77.5942 21.123V19.123C76.9676 19.1363 76.4542 19.1763 76.0542 19.243C75.6542 19.3097 75.3409 19.423 75.1142 19.583C74.8876 19.7297 74.7276 19.923 74.6342 20.163C74.5542 20.3897 74.5142 20.6697 74.5142 21.003C74.5142 21.5097 74.6342 21.903 74.8742 22.183C75.1142 22.463 75.4476 22.603 75.8742 22.603ZM82.2671 14.443C82.7737 14.123 83.3071 13.8963 83.8671 13.763V12.143C83.9471 12.063 84.0804 11.9897 84.2671 11.923C84.4671 11.843 84.6737 11.7763 84.8871 11.723C85.1137 11.6563 85.3337 11.5963 85.5471 11.543C85.7604 11.4897 85.9337 11.4497 86.0671 11.423H86.7471V13.963H89.3871V15.223H86.7471V20.403C86.7471 21.2297 86.8471 21.803 87.0471 22.123C87.2604 22.443 87.6071 22.603 88.0871 22.603C88.3271 22.603 88.5937 22.5897 88.8871 22.563C89.1937 22.523 89.4737 22.4563 89.7271 22.363L89.8671 23.023C89.7471 23.143 89.5671 23.2697 89.3271 23.403C89.1004 23.5363 88.8337 23.663 88.5271 23.783C88.2337 23.903 87.9071 24.003 87.5471 24.083C87.2004 24.163 86.8337 24.203 86.4471 24.203C85.5804 24.203 84.9337 23.9763 84.5071 23.523C84.0804 23.0697 83.8671 22.3363 83.8671 21.323V15.223H82.2671V14.443ZM99.8153 22.283C99.7087 22.5097 99.5353 22.743 99.2953 22.983C99.0687 23.2097 98.782 23.4163 98.4353 23.603C98.102 23.7763 97.7087 23.9163 97.2553 24.023C96.8153 24.143 96.3353 24.203 95.8153 24.203C94.9887 24.203 94.2553 24.083 93.6153 23.843C92.9753 23.5897 92.442 23.2363 92.0153 22.783C91.5887 22.3163 91.262 21.763 91.0353 21.123C90.822 20.483 90.7153 19.763 90.7153 18.963C90.7153 17.2563 91.162 15.9563 92.0553 15.063C92.9487 14.1697 94.1887 13.723 95.7753 13.723C96.4553 13.723 97.0887 13.8163 97.6753 14.003C98.2753 14.1897 98.7687 14.4963 99.1553 14.923C99.5553 15.3497 99.8287 15.9097 99.9753 16.603C100.135 17.2963 100.129 18.143 99.9553 19.143H93.8153C93.8287 20.1963 94.0953 21.0363 94.6153 21.663C95.1487 22.2897 95.9287 22.603 96.9553 22.603C97.3953 22.603 97.8487 22.5363 98.3153 22.403C98.7953 22.2697 99.1687 22.0963 99.4353 21.883L99.8153 22.283ZM95.6953 14.863C95.4287 14.863 95.1887 14.9097 94.9753 15.003C94.7753 15.0963 94.5953 15.2697 94.4353 15.523C94.2887 15.763 94.1687 16.0963 94.0753 16.523C93.982 16.9363 93.9153 17.463 93.8753 18.103H97.0953C97.1887 17.063 97.1287 16.263 96.9153 15.703C96.702 15.143 96.2953 14.863 95.6953 14.863ZM108.278 21.983C108.211 22.2763 108.091 22.5563 107.918 22.823C107.744 23.0897 107.538 23.3297 107.298 23.543C107.058 23.743 106.784 23.903 106.478 24.023C106.171 24.143 105.844 24.203 105.498 24.203C104.178 24.203 103.171 23.7897 102.478 22.963C101.798 22.123 101.458 20.843 101.458 19.123C101.458 18.243 101.578 17.4763 101.818 16.823C102.058 16.1563 102.391 15.5963 102.818 15.143C103.258 14.6897 103.784 14.3497 104.398 14.123C105.011 13.8963 105.691 13.783 106.438 13.783C106.678 13.783 106.878 13.7897 107.038 13.803C107.211 13.8163 107.364 13.8363 107.498 13.863C107.644 13.8763 107.778 13.9097 107.898 13.963C108.031 14.003 108.178 14.0497 108.338 14.103V10.583L106.818 10.423V9.64301C107.004 9.56301 107.258 9.48968 107.578 9.42301C107.911 9.35634 108.258 9.29634 108.618 9.24301C108.978 9.17634 109.331 9.11634 109.678 9.06301C110.024 9.00968 110.311 8.96301 110.538 8.92301H111.218V22.543L112.538 22.703V23.403C112.351 23.4963 112.111 23.583 111.818 23.663C111.524 23.743 111.218 23.8163 110.898 23.883C110.578 23.9497 110.264 24.003 109.958 24.043C109.664 24.0963 109.418 24.1363 109.218 24.163H108.538L108.358 21.983H108.278ZM106.458 22.603C106.924 22.603 107.318 22.4563 107.638 22.163C107.958 21.8697 108.191 21.3697 108.338 20.663V15.283C108.164 15.1763 107.944 15.0897 107.678 15.023C107.424 14.9563 107.104 14.923 106.718 14.923C105.944 14.923 105.391 15.2763 105.058 15.983C104.724 16.6763 104.558 17.6897 104.558 19.023C104.558 20.103 104.704 20.9697 104.998 21.623C105.291 22.2763 105.778 22.603 106.458 22.603Z" fill="#F4F4F1"/>
</g>
<defs>
<clipPath id="clip0_2_23">
<rect width="125" height="40" fill="white"/>
</clipPath>
</defs>
</svg>
