<svg width="375" height="108" viewBox="0 0 375 108" fill="none" xmlns="http://www.w3.org/2000/svg">
<g clip-path="url(#clip0_1_3)">
<path d="M10.0146 41.3565C8.19173 41.3565 6.69922 40.821 5.53711 39.7501C4.375 38.6563 3.79395 37.3233 3.79395 35.751C3.79395 34.1332 4.375 32.8116 5.53711 31.7862C6.69922 30.7608 8.19173 30.2481 10.0146 30.2481C11.8604 30.2481 13.3529 30.7608 14.4922 31.7862C15.6543 32.8116 16.2354 34.1332 16.2354 35.751C16.2354 37.3917 15.6543 38.7361 14.4922 39.7842C13.3529 40.8324 11.8604 41.3565 10.0146 41.3565ZM15.3467 81.8936H4.5459V46.8936H15.3467V81.8936ZM35.2393 81.8936H24.4385V30.0772H35.2393V81.8936ZM55.1318 81.8936H44.3311V30.0772H55.1318V81.8936ZM97.4805 81.8936H86.7139V76.5616H86.543C83.877 80.6859 80.3109 82.7481 75.8447 82.7481C67.7327 82.7481 63.6768 77.8376 63.6768 68.0167V46.8936H74.4434V67.0596C74.4434 72.0043 76.403 74.4766 80.3223 74.4766C82.2591 74.4766 83.8086 73.8044 84.9707 72.46C86.1328 71.0928 86.7139 69.2471 86.7139 66.9229V46.8936H97.4805V81.8936ZM162.183 81.8936H151.416V61.9327C151.416 56.8513 149.548 54.3106 145.811 54.3106C144.033 54.3106 142.586 55.074 141.47 56.6006C140.353 58.1273 139.795 60.03 139.795 62.3087V81.8936H128.994V61.7276C128.994 56.7829 127.16 54.3106 123.491 54.3106C121.646 54.3106 120.164 55.0398 119.048 56.4981C117.954 57.9564 117.407 59.9389 117.407 62.4454V81.8936H106.606V46.8936H117.407V52.3624H117.544C118.66 50.4939 120.221 48.9786 122.227 47.8165C124.255 46.6316 126.465 46.0391 128.857 46.0391C133.802 46.0391 137.186 48.2152 139.009 52.5674C141.675 48.2152 145.594 46.0391 150.767 46.0391C158.377 46.0391 162.183 50.7331 162.183 60.1212V81.8936ZM176.196 41.3565C174.373 41.3565 172.881 40.821 171.719 39.7501C170.557 38.6563 169.976 37.3233 169.976 35.751C169.976 34.1332 170.557 32.8116 171.719 31.7862C172.881 30.7608 174.373 30.2481 176.196 30.2481C178.042 30.2481 179.535 30.7608 180.674 31.7862C181.836 32.8116 182.417 34.1332 182.417 35.751C182.417 37.3917 181.836 38.7361 180.674 39.7842C179.535 40.8324 178.042 41.3565 176.196 41.3565ZM181.528 81.8936H170.728V46.8936H181.528V81.8936ZM224.424 81.8936H213.657V62.4454C213.657 57.0222 211.72 54.3106 207.847 54.3106C205.978 54.3106 204.44 55.0284 203.232 56.4639C202.025 57.8995 201.421 59.7224 201.421 61.9327V81.8936H190.62V46.8936H201.421V52.4307H201.558C204.132 48.1697 207.881 46.0391 212.803 46.0391C220.55 46.0391 224.424 50.8471 224.424 60.463V81.8936ZM262.124 81.8936H251.904V76.8692H251.768C249.421 80.7885 245.946 82.7481 241.343 82.7481C237.948 82.7481 235.27 81.7911 233.311 79.877C231.374 77.9402 230.405 75.3653 230.405 72.1524C230.405 65.362 234.427 61.4428 242.471 60.3946L251.973 59.1299C251.973 55.3018 249.899 53.3878 245.752 53.3878C241.582 53.3878 237.617 54.6296 233.857 57.1133V48.9786C235.361 48.2038 237.412 47.5202 240.01 46.9278C242.63 46.3353 245.011 46.0391 247.153 46.0391C257.134 46.0391 262.124 51.018 262.124 60.9756V81.8936ZM251.973 67.6749V65.3165L245.615 66.1368C242.106 66.5925 240.352 68.1762 240.352 70.8878C240.352 72.1182 240.773 73.1322 241.616 73.9297C242.482 74.7045 243.644 75.0919 245.103 75.0919C247.131 75.0919 248.783 74.3969 250.059 73.0069C251.335 71.5941 251.973 69.8168 251.973 67.6749ZM291.826 81.4835C290.231 82.3266 287.827 82.7481 284.614 82.7481C277.004 82.7481 273.198 78.7947 273.198 70.8878V54.8575H267.524V46.8936H273.198V39.3399L283.965 36.2637V46.8936H291.826V54.8575H283.965V69.0079C283.965 72.6537 285.412 74.4766 288.306 74.4766C289.445 74.4766 290.618 74.1462 291.826 73.4854V81.4835ZM329.116 67.4698H306.284C306.649 72.5512 309.85 75.0919 315.889 75.0919C319.74 75.0919 323.123 74.1804 326.04 72.3575V80.1505C322.804 81.8822 318.6 82.7481 313.428 82.7481C307.777 82.7481 303.39 81.1872 300.269 78.0655C297.147 74.921 295.586 70.546 295.586 64.9405C295.586 59.1299 297.272 54.5271 300.645 51.1319C304.017 47.7367 308.164 46.0391 313.086 46.0391C318.19 46.0391 322.132 47.5544 324.912 50.585C327.715 53.6156 329.116 57.7286 329.116 62.9239V67.4698ZM319.102 60.8389C319.102 55.8259 317.074 53.3194 313.018 53.3194C311.286 53.3194 309.782 54.0372 308.506 55.4727C307.253 56.9083 306.489 58.697 306.216 60.8389H319.102ZM369.79 81.8936H358.989V77.0743H358.853C356.392 80.8568 352.78 82.7481 348.018 82.7481C343.643 82.7481 340.122 81.21 337.456 78.1339C334.79 75.0349 333.457 70.7169 333.457 65.1797C333.457 59.392 334.927 54.7549 337.866 51.2686C340.806 47.7823 344.657 46.0391 349.419 46.0391C353.931 46.0391 357.075 47.657 358.853 50.8926H358.989V30.0772H369.79V81.8936ZM359.194 64.8721V62.2403C359.194 59.9616 358.534 58.0704 357.212 56.5665C355.89 55.0626 354.17 54.3106 352.051 54.3106C349.658 54.3106 347.79 55.2562 346.445 57.1475C345.101 59.016 344.429 61.5909 344.429 64.8721C344.429 67.9483 345.078 70.3181 346.377 71.9815C347.676 73.6449 349.476 74.4766 351.777 74.4766C353.965 74.4766 355.742 73.5993 357.109 71.8448C358.499 70.0902 359.194 67.766 359.194 64.8721Z" fill="#36413E"/>
</g>
<defs>
<clipPath id="clip0_1_3">
<rect width="375" height="108" fill="white"/>
</clipPath>
</defs>
</svg>
